<svg class="logo" xmlns="http://www.w3.org/2000/svg" viewBox="0 0 300 300" version="1.1">
  <g stroke="none" stroke-width="1" fill="none" fill-rule="evenodd">
    <g id="Penguin" transform="translate(10.857140, 8.721170)">
      <path d="M14.26 161.17C32.28 146.71 48.9 136.06 53.3 110.74 56.2 100.66 58 93.09 58.7 83.21 67.3-30.76 208.4-23 215.7 85.23L219.2 113.27C232.4 135.25 247.2 146.75 261.6 161.17 267.5 169.34 280.44 185.28 272.2 183.06 260.9 177.21 249.4 168.03 234.8 167.23 207.2 300.87 70.8 290.07 40.3 169.24 27.2 168.03-1.61 189.05 0.9 179.93 0.9 179.93 3.16 172.85 14.26 161.17Z" id="Outline" stroke="#000000" stroke-width="3.01" fill="#000000"/>
      <path d="M140.3 113.77C204.1 96.02 277.6 250.84 139.9 264.35 10.5 255.28 62.5 104.19 140.3 113.77L140.3 113.77Z" id="Stomach" stroke="#000000" stroke-width="3.01" fill="#FFFFFF"/>
      <path d="M108.9 50.73C77.3 49.62 63 107.52 108.5 118.81 156.6 113.47 147.4 54.26 108.9 50.73L108.9 50.73Z" id="Left-Eye" stroke="#000000" stroke-width="3.01" fill="#FFFFFF"/>
      <path d="M169.6 109.43C119.6 103.78 139.2 60.92 168.9 61.93 199.6 69.09 202.8 108.12 169.6 109.43L169.6 109.43Z" id="Right-Eye" stroke="#000000" stroke-width="3.01" fill="#FFFFFF"/>
      <path d="M139.2 145.04C129.6 146.15 116.6 126.08 113.5 112.66 130.7 94.1 151.9 94.3 167.4 112.46 165.4 124.76 150.7 146.75 139.2 145.04L139.2 145.04Z" id="Nose" stroke="#000000" stroke-width="3.01" fill="#F87E01"/>
      <path d="M142.5 74.13C141.1 51.04 195.6 37.62 195.7 84.62 174.5 47.3 150 65.56 142.5 74.13L142.5 74.13Z" id="Right-Eyebrow" stroke="#000000" stroke-width="3.01" opacity="0.3" fill="#FFFFFF"/>
      <path d="M78.5 79.88C70.2 39.44 136.4 14.73 141.7 75.95 124.7 39.94 88.6 42.76 78.5 79.88L78.5 79.88Z" id="Left-Eyebrow" stroke="#000000" stroke-width="3.01" opacity="0.2" fill="#FFFFFF"/>
      <path d="M147.6 75.34C154.2 74.84 159.1 93.19 147.6 96.62 137.8 92.99 140.4 75.44 147.6 75.34L147.6 75.34Z" id="Right-Eye" stroke="#000000" stroke-width="3.01" fill="#000000"/>
      <path d="M130.9 73.02C140.7 74.23 142 96.72 129.5 98.74 118.5 96.32 120.8 72.72 130.9 73.02L130.9 73.02Z" id="Left-Eye" stroke="#000000" stroke-width="3.01" fill="#000000"/>
      <path d="M79.2 59.71C103.8 23.6 139.9 40.85 141.3 72.72 153.8 45.19 176.7 48.31 195.9 65.16 190.6-16.24 81.1-13.01 79.1 59.71L79.2 59.71Z" id="Forhead" stroke="#000000" stroke-width="3.01" opacity="0.2" fill="#FFFFFF"/>
      <path d="M157.1 274.74C162.2 277.77 207.2 279.68 232.8 274.74 237.7 273.73 246.2 267.88 240.7 252.45 233.7 233.79 195.7 220.38 177.1 224.72 154 230.26 138.5 263.95 157.1 274.74L157.1 274.74Z" id="Right-Foot" stroke="#000000" stroke-width="3.01" fill="#F87E01"/>
      <path d="M121.6 274.84C116.4 277.87 70 279.68 43.6 274.84 38.6 273.83 29.8 268.09 35.5 252.96 42.8 234.7 79.7 221.49 101 225.72 124.5 230.67 140.6 264.25 121.6 274.84L121.6 274.84Z" id="Left-Foot" stroke="#000000" stroke-width="3.01" fill="#F87E01"/>
      <path d="M145.6 76.05C148.6 75.65 150.9 87.85 145.6 90.07 141.1 87.75 142.3 76.05 145.6 76.05L145.6 76.05Z" id="Right-Pupil" stroke="#000000" stroke-width="3.01" opacity="0.7" fill="#FFFFFF"/>
      <path d="M129.4 77.66C135.1 78.17 135.9 88.45 128.6 89.36 122.1 88.25 123.5 77.56 129.4 77.66L129.4 77.66Z" id="Left-Pupil" stroke="#000000" stroke-width="3.01" opacity="0.6" fill="#FFFFFF"/>
      <path d="M67.8 113.27C67.8 113.27 74 129.81 90.5 124.97 74.1 134.45 61.4 151.49 55.6 192.74 44.8 163.19 50 139.79 67.7 113.27L67.8 113.27Z" id="Left-Chest-Shine" opacity="0.2" fill="#FFFFFF"/>
      <path d="M211.1 116.9C211.1 116.9 205.1 133.44 189.1 128.6 204.9 138.08 217.3 155.12 222.8 196.37 233.2 166.82 228.2 143.42 211.1 116.9L211.1 116.9Z" id="Right-Chest-Shine" opacity="0.2" fill="#FFFFFF"/>
      <path d="M161 112.96C161 112.96 151.5 139.19 140.3 139.59 128.4 140.09 116 113.27 116 113.27 116 113.27 129.5 132.63 139.6 132.33 149.2 132.03 161 112.86 161 112.86L161 112.96Z" id="Nose-Shine" fill="#FF9A34"/>
      <path d="M67.8 202.73C77.2 170.15 86.1 155.22 116.4 138.99 111.1 134.04 108.5 130.01 107.5 123.86 73 153.11 66.3 181.65 67.9 202.73L67.8 202.73Z" id="Stomach-Shine" opacity="0.5" fill="#666666"/>
      <path d="M161.8 249.83C165.4 264.05 234.1 266.98 236 253.36 237.5 245.69 196.5 225.72 180.2 229.66 156.2 235.51 161.8 249.73 161.8 249.73L161.8 249.83Z" id="Right-Foot-Shine" fill="#FF9A34"/>
      <path d="M115.3 249.02C111.8 263.24 45.3 266.17 43.4 252.55 42 244.89 81.7 224.92 97.5 228.85 120.8 234.7 115.4 248.92 115.4 248.92L115.3 249.02Z" id="Left-Foot-Shine" fill="#FF9A34"/>
    </g>
    <g id="Bowtie" transform="translate(160.546994, 174.291097) rotate(-12.000000) translate(-160.546994, -174.291097) translate(113.546994, 152.291097)">
      <path d="M57.03 14.5C55.18 14.24 60.91 11.5 62.59 10.69 67.9 8.1 70.41 5.92 75.71 3.64 78.98 2.23 81.09 3.81 84.42 2.48 86.56 1.62 90.65 4.1 91.58 5.97 92.59 8.01 93.54 10.71 93.01 12.83 91.99 16.95 91.49 20.69 90.89 24.89 90.76 25.8 90.71 30.03 90.56 30.94 89.88 35.03 89.91 37.68 88.59 41.65 86.75 47.2 80.06 39.63 76.04 38.66 74.79 38.35 70.6 36.99 65.5 33.52 63.5 32.15 60.71 30.41 57.62 28.66 57.21 21.54 57.47 18.27 57.39 18.2" id="Shape" fill="#6A0AAB"/>
      <path d="M39.84 14.6C41.7 14.35 34.45 11.03 32.76 10.25 27.4 7.77 24.92 5.2 19.65 2.87 16.6 1.52 13.75 1.78 10.62 1.32 7.72 0.89 5.39 3.45 4.46 5.24 3.43 7.2 1.22 10.2 1.02 14.68 0.84 18.74 1.04 20.39 1.41 24.44 1.63 26.85 2.1 28.24 2.25 30.86 2.48 34.82 2.16 39.22 5.91 42.22 10.21 45.65 17.65 39.97 21.7 38.92 22.95 38.6 30.06 34.61 31.29 33.73 33.24 32.33 38.83 30.94 39.99 28.98 40.84 27.55 40.64 29.09 40.72 29.01" id="Shape" fill="#6A0AAB"/>
      <path d="M10.01 0.02C7.79 0.08 4.01 2.54 3.14 4.3 2.08 6.42 0.3 9.11 0.09 13.95 -0.1 18.34 0.35 20.67 0.02 24.8 -0.18 27.41 1.05 30.17 1.66 31.59 1.52 33.09 2.82 40.97 6.41 43.36 9.72 45.56 17.7 40.73 21.86 39.59 23.14 39.25 30.43 34.66 31.69 33.71 33.7 32.2 38.26 31 40.36 29.95L40.36 29.94 40.39 29.93C40.47 29.87 40.52 29.78 40.59 29.71L40.59 14.42C42.5 14.15 35.07 10.56 33.33 9.71 27.84 7.04 25.17 4.94 19.76 2.42 16.63 0.96 13.82 0.69 10.63 0.07 10.43 0.03 10.22 0.01 10.01 0.02L10.01 0.02ZM9.43 1.64C8.02 2.01 15.76 1.4 13.96 1.31 10.9 1.16 18.11 3.79 21.07 5.1 26.18 7.38 25.44 7.73 34.14 11.15 35.82 11.81 41.91 14.27 40.11 14.52L39.73 29.21C39.66 29.28 39.61 29.37 39.52 29.42L39.51 29.42C37.53 30.38 33.76 30.99 31.87 32.35 30.68 33.21 24.3 38.12 23.06 38.26 18.25 38.78 10.75 44.74 7.63 42.75 4.23 40.58 3.95 39.12 3.81 35.25 3.71 32.68 2.84 28.1 2.35 25.94 1.49 22.21 1.68 16.5 1.86 12.54 2.05 8.17 4.18 8.15 5.48 5.13 6.98 1.68 7.34 1.73 9.43 1.64L9.43 1.64Z" id="Shape" stroke="#000000" stroke-width="1.17" fill="#000000"/>
      <path d="M86.78 1.25C86.6 1.26 78.82 1.78 75.55 3.19 70.25 5.47 67.98 7.65 62.67 10.24 60.99 11.05 54.43 13.15 56.28 13.41L57.35 28.83C57.42 28.9 62.42 33.71 64.36 33.61 65.88 33.54 72.19 38.43 73.45 38.2 75.53 37.84 87.56 47.72 89.4 42.18 90.72 38.2 91.05 33.6 91.73 29.52 91.88 28.61 92.01 24.01 92.14 23.1 92.74 18.9 92.65 18.03 93.67 13.92 94.2 11.8 93.83 7.21 92.81 5.17 91.95 3.44 88.66 2.85 86.78 1.25L86.78 1.25ZM85.05 2.96C87.17 2.89 90.44 4.59 91.2 6.21 92.11 8.13 93.08 12.31 92.61 14.3 91.7 18.17 90.93 19.97 90.39 23.92 90.28 24.78 90.12 28.41 89.99 29.26 89.38 33.1 88.54 36.86 87.37 40.59 85.73 45.8 75.7 36.04 71.46 36.04 70.32 36.04 67.58 33.63 66.49 32.76 64.77 31.39 57.64 26.15 56.76 28.15 55.75 30.43 53.9 28.01 53.6 30.45L57.69 14.73C56.04 14.48 62.45 11.22 63.95 10.46 68.69 8.03 71.17 7.07 75.9 4.93 78.82 3.6 80.64 4.07 83.61 2.82 83.75 2.76 84.27 3.21 85.05 2.96L85.05 2.96Z" id="Shape" fill="#000000"/>
      <path d="M40.95 12.49C39.39 13.66 39.42 15.85 39.08 17.9 38.71 20.15 39.08 22.9 39.08 25.19 39.08 26.67 39.52 28.65 40.02 29.66 41.14 31.92 45.23 31.32 47.51 31.78 49.16 32.11 54.11 31.99 55.47 31.31 57.57 30.25 57.58 28.23 58.28 25.43 58.82 23.23 58.74 19.99 58.74 17.66 58.74 15.95 57.64 13.26 56.64 12.25 54.86 10.47 49.2 11.42 46.81 11.08 45.81 10.93 42.81 11.1 40.95 12.49L40.95 12.49Z" id="Shape" stroke="#000000" stroke-width="1.42" fill="#6A0AAB"/>
    </g>
  </g>
</svg>
